<?xml version="1.0" encoding="UTF-8" standalone="no"?>
<!-- Created with Inkscape (http://www.inkscape.org/) -->

<svg
   version="1.1"
   id="svg9"
   width="500"
   height="500"
   viewBox="0 0 500 500"
   sodipodi:docname="logo.svg"
   inkscape:version="1.2.1 (9c6d41e410, 2022-07-14)"
   inkscape:export-filename="logo.png"
   inkscape:export-xdpi="98.304001"
   inkscape:export-ydpi="98.304001"
   xmlns:inkscape="http://www.inkscape.org/namespaces/inkscape"
   xmlns:sodipodi="http://sodipodi.sourceforge.net/DTD/sodipodi-0.dtd"
   xmlns="http://www.w3.org/2000/svg"
   xmlns:svg="http://www.w3.org/2000/svg">
  <defs
     id="defs13" />
  <sodipodi:namedview
     id="namedview11"
     pagecolor="#ffffff"
     bordercolor="#000000"
     borderopacity="0.25"
     inkscape:showpageshadow="2"
     inkscape:pageopacity="0.0"
     inkscape:pagecheckerboard="0"
     inkscape:deskcolor="#d1d1d1"
     showgrid="false"
     inkscape:zoom="1.57"
     inkscape:cx="98.089172"
     inkscape:cy="251.27389"
     inkscape:window-width="1708"
     inkscape:window-height="881"
     inkscape:window-x="-9"
     inkscape:window-y="-9"
     inkscape:window-maximized="1"
     inkscape:current-layer="g15" />
  <g
     inkscape:groupmode="layer"
     inkscape:label="Image"
     id="g15">
    <path
       style="fill:#000000"
       d="m 269.01878,483.08923 c -14.98105,-7.62886 -19.39826,-9.47278 -25.36127,-10.58679 -4.03082,-0.75304 -5.28766,-0.42782 -13.7723,3.56375 -5.13517,2.41583 -9.59309,4.39241 -9.90647,4.39241 -0.31339,0 -4.44363,1.80648 -9.17833,4.0144 -6.0489,2.82078 -8.9699,3.7145 -9.82388,3.00576 -1.85807,-1.54206 -4.84578,-8.74 -4.26068,-10.26474 0.28538,-0.74368 6.44089,-3.11809 13.67893,-5.27647 7.23803,-2.15838 13.69947,-4.28267 14.35876,-4.72064 2.95705,-1.96441 -9.28715,-6.86843 -21.96039,-8.79553 -6.74905,-1.02626 -7.43635,-0.94834 -12,1.36043 -16.61594,8.40607 -33.73356,9.53898 -46.52014,3.07889 -6.23998,-3.1526 -6.84687,-4.40432 -2.12979,-4.39277 4.6546,0.0114 33.3156,-8.99169 33.29235,-10.45791 -0.009,-0.57828 -2.05102,-4.42642 -4.53744,-8.55142 -4.23872,-7.03208 -10.35056,-23.42867 -9.17225,-24.60697 0.86299,-0.863 7.88619,3.13902 12.51763,7.13291 2.36019,2.0353 7.07002,7.36209 10.46628,11.8373 8.45311,11.13857 14.56973,17.53775 18.22198,19.06376 15.32311,6.4024 23.85333,8.05795 41.02047,7.96128 12.10907,-0.0682 16.73456,-0.52349 24,-2.36239 7.32325,-1.85353 25.98451,-8.92519 26.92621,-10.20365 13.90304,-18.87493 18.48192,-23.92431 26.01957,-28.69318 4.89521,-3.09707 9.34553,-4.21845 7.98132,-2.01111 -0.75638,1.22385 -1.79715,5.0561 -3.9785,14.64927 -1.43453,6.30887 -2.9296,9.34964 -7.16242,14.56745 -1.26475,1.55907 -2.07708,3.19465 -1.80516,3.63461 0.27191,0.43997 2.62218,1.11903 5.22282,1.50902 2.60063,0.38999 9.07379,2.91691 14.3848,5.61538 5.311,2.69848 10.13718,4.90632 10.72485,4.90632 3.10119,0 1.74424,2.31661 -2.48985,4.25072 -3.98329,1.81954 -6.65289,2.20664 -15.32364,2.22197 -11.27886,0.0199 -11.82437,-0.14139 -23.5,-6.94998 -7.29015,-4.25121 -9.7783,-4.35263 -24.16134,-0.98483 -23.47461,5.49659 -24.81871,7.70355 -7.33866,12.0498 8.2992,2.06353 16.00473,5.33474 15.98355,6.78546 -0.0316,2.16787 -4.55205,9.11266 -6.12918,9.41639 -0.87533,0.16857 -7.30486,-2.60293 -14.28783,-6.1589 z m 74.43346,-33.69812 c -5.775,-1.56119 -11.9625,-2.85968 -13.75,-2.88552 -2.0145,-0.0291 -3.25,-0.55273 -3.25,-1.37736 0,-0.73171 3.34905,-8.09205 7.44234,-16.35633 5.17199,-10.44215 8.953,-16.67134 12.39437,-20.41962 7.34244,-7.99729 13.405,-10.99453 10.2712,-5.07794 -0.49065,0.92634 -1.63485,6.77177 -2.54268,12.98983 -0.90782,6.21806 -2.40241,12.88216 -3.3213,14.8091 -1.45379,3.04863 -1.48071,3.6237 -0.20732,4.42912 0.80486,0.50907 2.65055,0.93248 4.10152,0.9409 1.45098,0.008 6.5021,1.13504 11.22471,2.5036 4.72262,1.36856 11.04046,2.7767 14.03966,3.1292 4.88012,0.57356 5.33797,0.82523 4.35749,2.39522 -1.31305,2.10252 -5.95417,4.99658 -10.75999,6.70961 -5.90159,2.10361 -18.34375,1.3613 -30,-1.78981 z m -221.15482,-0.8392 c -2.01015,-1.00486 -5.98589,-3.33749 -8.83498,-5.18364 -5.18016,-3.35663 -5.18016,-3.35663 2.65482,-4.47707 9.4932,-1.35757 23.05709,-5.26606 23.65159,-6.81529 0.57939,-1.50987 -3.10174,-23.83676 -4.84192,-29.36731 -1.87633,-5.96329 9.19419,1.53101 14.85121,10.05366 4.7038,7.08659 15.05683,29.75084 13.99761,30.64276 -0.70901,0.59702 -5.16011,2.06506 -18.72273,6.17501 -5.24822,1.5904 -18.7365,0.98098 -22.7556,-1.02812 z m 245.65482,-21.03228 c -5.00137,-0.31177 -8.98306,-1.00532 -8.96187,-1.56103 0.021,-0.55 2.14658,-7.52501 4.72358,-15.50002 5.65634,-17.50465 9.47466,-24.31133 16.1398,-28.77147 2.68887,-1.79931 5.04064,-3.11969 5.22615,-2.93418 0.67143,0.67142 -2.70189,23.32056 -4.14641,27.83988 -0.81469,2.54882 -1.48125,5.07259 -1.48125,5.60839 0,0.53579 4.8375,1.2858 10.75,1.66667 17.1046,1.10185 23.56093,1.9936 23.996,3.31436 0.61092,1.85455 -11.15316,8.9835 -16.83537,10.20212 -5.11149,1.09621 -13.38489,1.13427 -29.41063,0.13528 z M 106.14291,424.4816 c -10.512288,-1.91078 -20.193702,-5.80954 -27.998255,-11.27505 -1.544167,-1.08137 -2.584263,-2.18945 -2.311325,-2.46238 0.893558,-0.89356 24.022872,-5.23874 28.01186,-5.26244 3.89296,-0.0231 3.89296,-0.0231 3.21968,-9.79871 -0.37031,-5.37657 -1.31311,-11.90157 -2.09513,-14.5 -1.25846,-4.18157 -1.24748,-4.72442 0.0956,-4.72442 2.77262,0 12.10945,10.49707 15.64871,17.5933 4.2235,8.46813 11.47061,29.00766 10.55725,29.92102 -1.07862,1.07862 -19.897,1.45956 -25.12834,0.50868 z m 113.80933,-9.12253 c -2.75,-0.52663 -7.475,-1.43425 -10.5,-2.01692 -3.025,-0.58268 -11.125,-2.82658 -18,-4.98645 C 139.9656,392.18052 99.026422,352.37044 81.889102,301.81431 75.125243,281.8605 74.047543,274.60445 74.038744,248.9586 c -0.0075,-21.72794 0.147794,-23.66319 2.807055,-34.99114 2.450559,-10.43892 4.547763,-17.40082 7.533669,-25.00886 2.93065,-7.46721 11.848314,-24.36376 16.613102,-31.47729 25.3656,-37.86927 64.33371,-63.584623 110.95967,-73.223113 9.59064,-1.982577 13.88278,-2.26857 33.5,-2.232175 20.45885,0.03796 23.58984,0.279408 34.51356,2.661565 61.85392,13.48859 110.01649,56.011993 128.85857,113.771013 9.28437,28.46056 10.24615,63.17336 2.56306,92.50655 -6.26366,23.91394 -18.88696,47.47163 -36.13782,67.44064 -23.61808,27.33948 -58.43612,47.34029 -96.19603,55.25868 -8.17897,1.71516 -14.28812,2.16908 -32.10134,2.3852 -12.1,0.14681 -24.25,-0.16396 -27,-0.6906 z m 18.71183,-20.98178 c 0.8352,-8.70444 2.68099,-15.11828 4.20714,-14.61917 1.69745,0.55512 3.57582,7.33712 4.25393,15.35914 0.56401,6.67217 0.81808,7.34134 2.78742,7.34134 3.2993,0 23.45015,-2.75211 29.06897,-3.97011 9.6927,-2.1011 22.45402,-6.55112 23.02728,-8.02989 0.31983,-0.825 1.01078,-8.025 1.53546,-16 0.52467,-7.975 1.40259,-21.025 1.95092,-29 1.04605,-15.21379 2.83556,-53.77258 2.91222,-62.75 0.0247,-2.8875 0.49483,-5.25 1.04483,-5.25 0.55,0 1,0.91412 1,2.03138 0,2.99551 2.31094,3.3725 7.17713,1.17082 5.88477,-2.66253 12.4388,-8.55758 15.07541,-13.55965 1.85895,-3.52671 2.2346,-3.81734 2.52689,-1.95494 0.4358,2.77687 -3.88878,11.66924 -8.06944,16.59272 -1.7655,2.07918 -5.68499,5.48105 -8.70999,7.55971 -4.67957,3.21562 -5.53893,4.29257 -5.76099,7.21967 -0.38181,5.03287 0.9737,6.69959 4.09157,5.03096 3.52098,-1.88437 9.73398,-8.13028 10.75266,-10.80961 1.24557,-3.2761 3.1031,-2.89606 2.29201,0.46894 -1.46686,6.08558 -5.0551,12.0279 -10.41631,17.25 -5.64652,5.5 -5.64652,5.5 -6.3511,20 -0.69054,14.21114 -3.61755,39.08807 -5.64764,48 -1.92299,8.44171 -2.29361,13 -1.05701,13 0.63981,0 3.4157,-1.14138 6.16864,-2.5364 5.41397,-2.74347 6.16539,-3.98771 7.89977,-13.08085 3.80813,-19.96554 5.28321,-28.30494 7.06894,-39.96434 1.9006,-12.40935 5.01922,-24.2366 8.42095,-31.93613 0.84618,-1.91525 2.21351,-5.05728 3.03851,-6.98228 0.825,-1.925 2.175,-5.075 3,-7 0.825,-1.925 2.19233,-5.06703 3.03851,-6.98228 2.45913,-5.56602 6.46746,-18.645 7.12384,-23.24468 0.33175,-2.32483 1.02899,-3.9638 1.54942,-3.64216 1.04223,0.64414 0.63644,4.71919 -2.27728,22.86912 -2.18072,13.58397 -2.25138,14.5 -1.11854,14.5 0.44877,0 3.48627,-2.47533 6.75,-5.50072 3.26373,-3.0254 9.26303,-8.0879 13.33178,-11.25 19.85722,-15.4324 31.07164,-27.50814 31.09266,-33.48072 0.0234,-6.64935 -4.67792,-31.45741 -6.13169,-32.35589 -0.51644,-0.31918 -1.8324,0.55547 -2.92436,1.94367 -2.00951,2.55469 -13.34104,10.33697 -17.93434,12.31698 -10.52513,4.537 -11.39214,4.02568 -2.92439,-1.72466 5.39005,-3.66032 16.81861,-12.82972 20.67439,-16.58756 0.6875,-0.67003 1.25,-1.91628 1.25,-2.76943 0,-1.65504 -2.88448,-9.6081 -3.92177,-10.81306 -0.34155,-0.39676 -3.67452,0.19469 -7.4066,1.31434 -3.73207,1.11965 -7.23064,1.88738 -7.77459,1.70606 -0.54395,-0.18131 1.95669,-2.05282 5.55698,-4.1589 3.60029,-2.10608 6.54598,-4.47961 6.54598,-5.27451 0,-2.03851 -3.8583,-9.3656 -4.93173,-9.3656 -0.4901,0 -3.54039,2.89125 -6.77843,6.425 -6.84074,7.46545 -11.89974,17.0867 -16.2488,30.90211 -7.79647,24.76653 -21.11278,42.7642 -37.86725,51.17949 -7.0431,3.53755 -7.59527,2.61182 -0.97102,-1.62796 7.62295,-4.87898 11.64408,-8.65811 13.88372,-13.04817 2.32304,-4.55355 1.38993,-7.42181 -2.75274,-8.46155 -4.23481,-1.06287 -22.03519,0.37264 -33.21267,2.67844 -12.00375,2.47625 -16.06057,2.16006 -24.69838,-1.92498 -11.09133,-5.24537 -17.70249,-16.27198 -21.95747,-36.62238 -1.5258,-7.29754 -1.97291,-23.2673 -0.69992,-25 0.40408,-0.55 5.07909,-1.08539 10.3889,-1.18976 5.30982,-0.10436 13.18482,-0.94748 17.5,-1.87359 12.1463,-2.60679 13.44624,-2.72185 9.34579,-0.82721 -4.92303,2.27472 -21.26981,6.31744 -29,7.172 -6.5,0.71856 -6.5,0.71856 -6.80495,5.47242 -0.28247,4.40352 -0.0982,4.83421 2.5,5.8442 1.54272,0.59968 8.16199,1.1361 14.70949,1.19204 11.86454,0.10137 11.88637,0.10595 6.5,1.36343 -2.9725,0.69395 -9.09048,1.2808 -13.59552,1.3041 -4.50504,0.0233 -8.45484,0.46929 -8.77732,0.99107 -0.93696,1.51605 1.51115,10.03648 4.75557,16.5513 4.28595,8.60622 11.17297,17.14717 15.49793,19.21978 9.39237,4.50103 32.25268,0.54894 55.51301,-9.59708 17.66924,-7.70723 31.81486,-26.35561 37.64099,-49.6227 1.48845,-5.94425 2.87176,-10.17657 4.3307,-13.25 1.48787,-3.13438 0.0532,-5.45712 -10.03295,-16.2439 -8.27207,-8.84664 -23.64396,-22.00831 -25.69894,-22.00385 -1.33964,0.003 -20.76211,17.0996 -21.29814,18.74775 -1.03159,3.17189 10.57935,0.45773 20.98762,-4.90604 3.59055,-1.85034 0.71677,1.68072 -3.48951,4.28762 -9.8498,6.10456 -25.45015,9.57531 -38.21274,8.50155 -4.13888,-0.34822 -10.86726,-0.91519 -14.95195,-1.25993 -8.74591,-0.73815 -10.91967,-0.30598 -16.08198,3.19726 -3.81886,2.59154 -3.84511,2.59465 -2.32443,0.27534 4.58426,-6.99184 14.9855,-9.45377 35.33575,-8.36382 13.23032,0.7086 13.23032,0.7086 19.36385,-8.52344 6.48291,-9.75794 7.20392,-12.32194 5.56548,-19.79158 -0.59934,-2.73235 -11.46172,-8.08323 -25.67818,-12.64924 -8.74621,-2.80908 -8.74621,-2.80908 -17.31575,1.39802 -4.71324,2.3139 -9.06701,4.04127 -9.67503,3.83859 -0.60802,-0.20267 0.99657,-2.1256 3.56575,-4.27318 2.56919,-2.14757 4.67125,-4.40652 4.67125,-5.019893 0,-3.13739 -39.69955,-4.68824 -54.49038,-2.12865 -8.39553,1.45286 -9.13793,2.959273 -3.50366,7.109223 7.76447,5.71895 4.24033,5.73151 -7.11355,0.0254 -5.9145,-2.97247 -7.01587,-3.21628 -10.5,-2.32441 -2.14082,0.54801 -4.91156,1.2438 -6.15719,1.54621 -1.24563,0.3024 -2.50968,0.94609 -2.80901,1.43042 -0.29934,0.48433 -1.20243,0.8806 -2.00687,0.8806 -2.36226,0 -18.80408,7.93587 -20.16934,9.73501 -1.77141,2.33437 -1.47496,9.22493 0.54918,12.76499 0.94345,1.65 3.73046,6.07395 6.19335,9.83101 4.478,6.83101 4.478,6.83101 18.08044,6.13018 17.90631,-0.92258 26.31518,0.46727 31.93601,5.27849 5.00968,4.2881 5.26655,6.33565 0.32131,2.56121 -3.38377,-2.58265 -4.33826,-2.7955 -12.25,-2.73169 -4.71916,0.0381 -12.85529,0.43031 -18.08029,0.87168 -7.24012,0.61158 -11.48303,0.42592 -17.8362,-0.78046 -9.37466,-1.78013 -20.88466,-6.66993 -24.32812,-10.33533 -2.07645,-2.21028 -2.10539,-2.37024 -0.31215,-1.72538 1.08706,0.39092 2.42647,1.03405 2.97647,1.42918 4.286,3.07917 19.5,6.27003 19.5,4.08977 0,-1.26601 -19.82125,-18.11871 -21.31021,-18.11871 -3.49744,0 -22.91626,17.51958 -31.89891,28.77907 -3.99404,5.00641 -4.90713,6.83055 -4.50502,9 1.7344,9.35731 6.41302,23.15726 10.89245,32.12809 9.25179,18.52832 20.69517,27.72443 44.32169,35.61773 14.69616,4.90979 18.84203,5.73978 29.05305,5.81637 9.08772,0.0682 10.38404,-0.15713 13.5,-2.34621 4.20113,-2.95146 4.91032,-3.77127 10.42794,-12.0545 4.4706,-6.71141 8.51901,-16.88541 8.51901,-21.409 0,-2.51249 -0.0659,-2.53188 -8.75,-2.57568 -4.8125,-0.0243 -10.93555,-0.62021 -13.60677,-1.3243 -4.85677,-1.28016 -4.85677,-1.28016 4.5,-1.2644 5.14622,0.009 11.45077,-0.31645 14.0101,-0.72248 3.88581,-0.61648 4.76021,-1.16405 5.30127,-3.31981 0.35636,-1.41987 0.36411,-3.87382 0.0172,-5.45323 -0.53961,-2.4568 -1.1089,-2.87165 -3.9408,-2.87165 -7.53462,0 -31.72838,-5.84307 -34.03101,-8.21887 -1.03141,-1.06419 -0.39959,-0.98223 10,1.2973 2.75,0.60279 9.87321,1.64106 15.82935,2.30728 10.82935,1.21131 10.82935,1.21131 12.08475,-1.8372 1.17333,-2.84922 1.30183,-2.42472 1.96572,6.49353 0.93345,12.53944 -0.0954,19.98414 -4.62375,33.45796 -5.64031,16.7823 -13.65944,25.01628 -26.78844,27.50614 -4.28593,0.81281 -7.87885,0.53892 -19.76069,-1.50635 -23.01259,-3.96126 -34.20693,-3.26706 -34.20693,2.1213 0,4.41595 7.85715,12.85592 16.91857,18.17353 5.81843,3.41449 3.64856,4.0332 -2.75844,0.78653 -16.7604,-8.49314 -30.37664,-27.49603 -38.6346,-53.91861 -1.91877,-6.1394 -5.18446,-14.03422 -7.2571,-17.54404 -4.46979,-7.5692 -10.87789,-15.1185 -12.83309,-15.1185 -1.32331,0 -5.43534,6.76594 -5.43534,8.94332 0,0.56264 2.21815,2.14701 4.92923,3.52082 2.71108,1.37381 5.21264,2.95639 5.55902,3.51684 0.76678,1.24068 -1.98483,1.34289 -4.30399,0.15987 -0.92634,-0.47253 -3.17458,-1.14184 -4.99608,-1.48736 -3.13999,-0.59562 -3.40858,-0.40836 -5.176688,3.60915 -3.85691,8.76375 -3.8541,8.77505 3.753308,15.11194 3.78953,3.15664 9.55522,7.56624 12.81263,9.79911 7.56197,5.18351 8.64868,6.25529 5.42257,5.34806 -5.34998,-1.50449 -16.73328,-7.63387 -21.428188,-11.53809 -3.5947,-2.98929 -5.11605,-3.74448 -5.6224,-2.79094 -1.27932,2.40918 -3.91621,18.21507 -4.55565,27.30728 -0.632964,9 -0.632964,9 4.21192,14.87488 2.66469,3.23119 11.156018,10.92505 18.869608,17.09748 7.71359,6.17243 16.27471,13.34548 19.02471,15.94012 4.91202,4.63451 5.00554,4.6727 5.31469,2.17048 0.17308,-1.40087 -0.61442,-8.11859 -1.75,-14.92826 -2.09034,-12.53501 -2.71388,-23.11506 -1.12891,-19.1547 0.44023,1.1 1.58068,5.2979 2.53434,9.32866 1.65071,6.977 4.33922,14.39795 8.71312,24.05038 8.46774,18.68683 12.47619,32.02496 14.7621,49.12096 1.46948,10.98999 6.83283,39.28633 8.05642,42.50463 0.63064,1.65872 3.11111,3.55594 7.44002,5.69063 3.57169,1.76128 6.73378,2.96251 7.02688,2.66941 0.2931,-0.2931 0.13261,-2.52006 -0.35665,-4.94879 -5.21278,-25.87679 -6.23116,-34.48281 -7.50424,-63.41588 -0.26107,-5.93338 -0.33618,-6.07217 -6.7645,-12.5 -6.57024,-6.56974 -9.87431,-12.93842 -9.81991,-18.92814 0.0199,-2.19631 0.42151,-1.84944 2.75,2.37537 3.01594,5.47213 11.66317,12.51624 13.32487,10.85454 0.53591,-0.53591 1.23562,-2.58421 1.55491,-4.55178 0.54739,-3.37314 0.33122,-3.7318 -3.7863,-6.28201 -8.88597,-5.50356 -15.97967,-14.24944 -18.8359,-23.22295 -1.76754,-5.55314 -0.70869,-6.48891 1.80131,-1.59194 2.67564,5.22013 8.68389,11.04544 14.38451,13.94652 7.07323,3.59962 8.78324,2.98023 8.78324,-3.1814 0,-1.33001 0.38406,-2.41821 0.85347,-2.41821 0.4694,0 1.15482,10.6875 1.52315,23.75 0.36833,13.0625 1.06556,29.825 1.54941,37.25 0.48384,7.425 1.4196,22.02965 2.07945,32.45477 0.65985,10.42512 1.57472,19.94106 2.03304,21.14653 0.61966,1.62983 2.83672,2.82799 8.64739,4.67328 8.03124,2.55046 13.5612,4.1118 18.81409,5.31202 4.03096,0.92101 22.74302,3.23192 24,2.96396 0.55,-0.11725 1.32032,-3.55159 1.71183,-7.63187 z m 18.24626,-24.75153 c -7.64398,-3.56118 -9.83235,-10.60115 -8.24169,-26.51343 1.71099,-17.11601 2.32918,-16.93687 4.23426,1.22698 2.01437,19.20582 5.11388,23.12735 15.57507,19.70567 9.04265,-2.9577 27.16266,-3.31825 25.42453,-0.50589 -0.32365,0.52367 -0.98249,0.70861 -1.4641,0.41096 -1.33975,-0.82802 -14.34119,2.12966 -19.61345,4.46183 -6.96378,3.08041 -11.21254,3.40448 -15.91462,1.21388 z m -41.45809,-0.75574 c -2.475,-0.79791 -9.225,-2.26997 -15,-3.27125 -10.5,-1.82049 -10.5,-1.82049 -7.29966,-3.48033 4.60329,-2.38747 14.82851,-2.17209 22.01215,0.46365 3.18313,1.16793 6.21501,2.51793 6.73751,3 0.5225,0.48208 2.435,0.87651 4.25,0.87651 3.19737,0 4.58526,1.66105 2.05,2.45347 -3.99031,1.24722 -8.8001,1.23135 -12.75,-0.042 z m -26.5,-54.34826 c 5.85386,-6.66162 19.30146,-8.83855 31.42331,-5.08689 4.52626,1.40085 8.38026,2.01302 10.2806,1.63295 2.60584,-0.52117 2.86429,-0.39632 1.80979,0.87427 -2.27265,2.73838 -7.59057,3.43778 -17.05547,2.24309 -8.70481,-1.09875 -20.71749,-0.24817 -26.45823,1.87342 -2,0.73913 -2,0.73913 0,-1.53684 z m 67.52056,0.86276 c -7.77858,-3.23517 -9.45193,-7.8741 -8.74575,-24.24531 0.3127,-7.24934 0.98327,-14.27973 1.49015,-15.6231 0.9216,-2.44249 0.9216,-2.44249 1.51664,0 0.32727,1.34337 0.87096,6.94249 1.20819,12.44249 0.70532,11.50328 2.10154,17.91808 4.29456,19.731 1.09046,0.90145 5.90572,1.269 16.62536,1.269 13.7993,0 15.49666,0.20012 19.84029,2.33921 2.6125,1.28656 4.75,2.66262 4.75,3.05791 0,0.39528 -3.30368,0.0458 -7.3415,-0.77662 -6.75811,-1.3765 -8.04943,-1.34951 -16.25,0.33957 -11.97179,2.46586 -14.47595,2.67696 -17.38794,1.46585 z m -66.10381,-49.34003 c 3.97953,-4.10583 12.77949,-8.22434 20.74942,-9.71102 6.27608,-1.17073 16.0351,-0.70106 18.91441,0.91029 1.42751,0.79887 0.61794,1.2263 -4.15375,2.19308 -10.95349,2.21926 -22.87386,5.23367 -30.19788,7.6364 -3.99908,1.31195 -7.57486,2.38536 -7.94617,2.38536 -0.37131,0 0.81398,-1.53635 2.63397,-3.41411 z m 105.08325,2.25353 c -1.375,-0.5686 -6.1,-2.04686 -10.5,-3.28503 -7.79045,-2.19225 -11.8279,-3.15484 -23.81525,-5.67788 -7.14848,-1.50459 -5.71276,-2.74886 4.0831,-3.53864 11.19648,-0.9027 24.59078,3.27352 31.98215,9.97176 3.71492,3.36654 2.94944,4.47312 -1.75,2.52979 z M 163.63252,217.17583 c -5.38265,-6.48571 -0.4822,-15.53477 7.10812,-13.12569 3.4441,1.09311 4.7116,3.0252 4.7116,7.18204 0,2.5242 -0.6501,4.50477 -1.82874,5.57143 -2.16704,1.96114 -8.47718,2.19623 -9.99098,0.37222 z m 157.81972,-0.71723 c -4.94637,-4.94637 -0.32433,-13.91487 6.47083,-12.55583 1.65131,0.33026 3.61394,1.21203 4.36139,1.95948 2.04214,2.04214 1.87381,8.15871 -0.29033,10.55006 -2.43328,2.68875 -7.87554,2.71264 -10.54189,0.0463 z M 228.6934,142.6871 c -4.35248,-6.70917 -7.71853,-15.78565 -6.99178,-18.85315 0.2965,-1.25153 2.01745,1.45106 5.17357,8.12465 2.6011,5.5 5.19732,10.96812 5.76937,12.15139 0.57205,1.18326 0.83248,2.75826 0.57874,3.5 -0.26821,0.78401 -2.16467,-1.27698 -4.5299,-4.92289 z m 29.27214,3.27985 c 0.35536,-1.6454 2.94027,-7.7204 5.74425,-13.5 3.93077,-8.10214 5.19069,-9.9714 5.50229,-8.16341 0.64731,3.75587 -4.86952,16.66184 -9.25674,21.65506 -2.63591,3 -2.63591,3 -1.9898,0.008 z m 76.00457,228.81649 c 30.08054,-20.20779 53.41339,-53.10777 62.48541,-88.10617 2.6972,-10.40537 4.86274,-25.18344 3.78767,-25.84787 -0.4569,-0.28238 -2.73428,1.43708 -5.06084,3.82101 -2.32656,2.38394 -7.15511,6.55035 -10.73011,9.2587 -22.00913,16.67363 -37.55655,32.76296 -43.96516,45.49758 -2.74696,5.45851 -3.81388,9.64187 -6.00664,23.55191 -1.70014,10.78497 -3.07587,18.60998 -4.04368,23 -1.63014,7.39434 -2.08068,11.5 -1.26197,11.5 0.44725,0 2.60514,-1.20382 4.79532,-2.67516 z M 156.78493,373.7086 c 0.2479,-0.4125 -0.16516,-3.675 -0.91791,-7.25 -1.43281,-6.8048 -3.77168,-20.61679 -5.50342,-32.5 -0.56106,-3.85 -1.5071,-8.575 -2.1023,-10.5 -3.19002,-10.31713 -20.70487,-30.13589 -39.30906,-44.47978 -4.95,-3.81647 -11.235288,-8.91395 -13.967298,-11.32775 -2.97448,-2.62803 -5.12871,-3.90448 -5.36963,-3.1817 -0.75846,2.27538 2.04461,16.49149 5.5188,27.98923 7.225778,23.91352 19.170128,43.80151 37.310128,62.12336 10.27363,10.37662 21.29918,19.81544 23.19898,19.86032 0.38004,0.009 0.89381,-0.32118 1.14171,-0.73368 z m 232.12411,29.5 c 0.86984,-2.83617 2.7408,-10.25008 6.08567,-24.11526 1.44165,-5.97589 3.52936,-12.50089 4.63937,-14.5 2.68165,-4.82959 6.72399,-10.13474 7.72232,-10.13474 0.99911,0 2.45874,12.85374 2.66859,23.5 0.12131,6.15409 0.47721,7.96558 1.54247,7.85081 0.76163,-0.0821 5.20978,-0.82567 9.88478,-1.65249 15.85995,-2.80499 19,-3.04252 19,-1.43722 0,2.37146 -10.08229,11.16873 -16,13.96075 -9.99797,4.71711 -25.54747,8.74404 -33.86663,8.7706 -1.99318,0.006 -2.25774,-0.3475 -1.67657,-2.24245 z M 75.391667,398.0938 c -2.50831,-0.6764 -6.082511,-2.11869 -7.94267,-3.20508 -3.172867,-1.85305 -16.690218,-17.07967 -15.872469,-17.87954 0.206636,-0.20211 5.535051,0.48447 11.840923,1.52575 6.305871,1.04128 11.812219,1.54623 12.236328,1.12212 0.424108,-0.42411 1.490431,-7.50476 2.369606,-15.73478 1.982968,-18.5627 1.895068,-18.25671 4.553337,-15.85101 5.276186,4.77489 8.51592,13.10265 12.46453,32.04017 4.02045,19.2821 3.9328,17.97536 1.2538,18.69261 -3.82923,1.02521 -16.001444,0.61163 -20.903385,-0.71024 z M 420.45224,367.19222 c 0,-4.14855 -0.88398,-10.98867 -1.98465,-15.35699 -2.34803,-9.31882 -2.57808,-18.78557 -0.57313,-23.58411 1.35195,-3.23566 4.22668,-6.56161 4.91375,-5.68502 0.47635,0.60774 4.35231,10.92768 5.78112,15.3925 0.70403,2.2 1.55514,4.45 1.89136,5 0.33621,0.55 1.23016,2.96032 1.98655,5.35626 1.45918,4.62208 3.19836,6.04148 5.28285,4.31151 3.29756,-2.73673 28.70215,-7.4741 28.70215,-5.35229 0,1.27238 -3.77107,5.93609 -7.97209,9.85915 -4.35339,4.06534 -21.60087,12.83399 -29.02791,14.75784 -3.025,0.78357 -6.2875,1.72997 -7.25,2.10309 -1.57116,0.60909 -1.75,-0.086 -1.75,-6.80194 z M 55.95223,365.07907 C 39.817465,358.43834 33.213733,353.99538 28.024019,346.2891 c -1.933504,-2.87109 -3.329599,-5.40602 -3.102433,-5.63319 0.775646,-0.77565 19.685152,2.86955 24.627301,4.74742 6.240847,2.37133 4.975247,4.33389 12.390583,-19.21397 3.158333,-10.02948 4.083799,-10.16593 7.474998,-1.10214 2.63843,7.05184 2.677116,18.05122 0.10731,30.5113 -2.283736,11.07302 -2.905897,12.87444 -4.426537,12.81663 -0.628656,-0.0239 -4.743011,-1.52514 -9.143011,-3.33608 z M 437.53345,343.2086 c -5.98596,-15.49361 -6.58659,-18.32892 -6.51404,-30.75 0.0575,-9.85141 0.39541,-12.17993 2.35683,-16.24299 1.25932,-2.60865 2.63228,-4.53125 3.05102,-4.27245 0.41875,0.2588 1.05252,2.61815 1.40839,5.243 0.60428,4.4572 9.76211,25.27244 11.11881,25.27244 0.33828,0 2.27617,-1.33006 4.30642,-2.95569 3.92973,-3.14656 21.02283,-11.54617 21.83782,-10.73119 0.77893,0.77894 -1.65029,8.76442 -4.15852,13.67013 -3.27027,6.39615 -7.67812,10.21702 -17.87868,15.4978 -4.8899,2.53148 -9.82753,5.25885 -10.9725,6.06082 -2.81394,1.97096 -3.53667,1.84533 -4.55555,-0.79187 z M 41.45223,334.5762 c -13.50854,-4.3592 -18.600474,-9.90784 -23.896232,-26.03952 -3.324094,-10.12569 -2.964401,-10.98227 2.646232,-6.30179 4.718885,3.93656 17.616094,12.22522 19.017613,12.22206 1.425834,-0.003 12.904541,-19.08867 14.621986,-24.31173 1.038449,-3.15811 2.365138,-0.91604 3.577507,6.04589 1.360734,7.81391 0.735276,15.47683 -2.184798,26.76749 -2.558403,9.89223 -4.325708,13.51584 -6.557988,13.44622 -0.948376,-0.0296 -4.19932,-0.85246 -7.22432,-1.82862 z m 412.15809,-27.8676 c -0.69121,-2.6125 -3.72784,-9.82717 -6.74808,-16.03261 -4.21322,-8.65654 -5.62332,-12.72972 -6.05838,-17.5 -0.57961,-6.3553 0.48523,-12.84703 2.19432,-13.37744 0.52473,-0.16284 3.42317,3.40655 6.44097,7.93199 13.02978,19.53921 11.52755,18.49337 17.88364,12.45043 6.14593,-5.84313 17.84532,-14.01226 18.49084,-12.91128 0.22216,0.3789 0.057,3.19223 -0.36709,6.25184 -0.7165,5.16959 -4.24481,13.44114 -7.22469,16.93707 -1.75838,2.0629 -22.45787,21 -22.95437,21 -0.22024,0 -0.96596,-2.1375 -1.65716,-4.75 z M 25.865411,296.50442 c -4.969224,-4.46545 -10.461803,-10.47328 -12.205731,-13.35075 -3.076681,-5.0765 -7.7959512,-20.4399 -6.6352042,-21.60065 0.316236,-0.31624 5.3039212,4.25815 11.0837442,10.1653 5.779822,5.90716 11.034197,10.73471 11.676389,10.7279 0.642191,-0.007 2.180887,-1.46931 3.419323,-3.25 1.238436,-1.78069 4.306229,-5.71262 6.817318,-8.73762 2.511089,-3.025 5.810912,-7.63691 7.33294,-10.24869 1.522029,-2.61178 3.066736,-4.44928 3.432682,-4.08333 1.509275,1.50927 0.603869,15.19111 -1.417277,21.41686 -2.120715,6.53245 -9.407024,20.8284 -12.668765,24.85648 -1.800466,2.22348 -1.800466,2.22348 -10.835419,-5.8955 z M 462.67378,272.1947 c -0.65495,-1.81122 -3.73808,-7.33029 -6.85142,-12.26461 -8.66672,-13.73588 -11.57283,-20.57244 -12.14514,-28.57113 -0.4938,-6.90154 -0.4938,-6.90154 9.64061,3.06422 5.57393,5.48116 10.13441,10.43143 10.13441,11.00059 0,2.42498 3.70726,0.5723 13.1223,-6.55779 5.51419,-4.17594 10.30494,-7.31348 10.64611,-6.97231 0.98548,0.98548 -1.66763,12.28002 -4.26331,18.14932 -1.30344,2.94731 -3.80039,7.4379 -5.54878,9.97909 -3.20497,4.65827 -11.74449,14.71068 -12.91335,15.20113 -0.34684,0.14553 -1.16649,-1.21729 -1.82143,-3.02851 z M 23.664863,267.74644 C 13.312569,256.41369 8.3962988,245.79412 7.6757648,233.2086 c -0.277388,-4.84513 -0.104343,-8.70232 0.387759,-8.64316 0.488788,0.0588 4.9387062,4.51852 9.8887062,9.91057 4.95,5.39204 9.328354,9.84396 9.729676,9.89315 0.401322,0.0492 1.601331,-1.61914 2.666686,-3.70741 2.047469,-4.01337 13.522192,-18.66258 16.608425,-21.20315 1.746388,-1.43762 1.795752,-1.1257 1.186962,7.5 -0.750948,10.63988 -3.346184,19.22735 -8.915254,29.5 -4.679932,8.63256 -9.5548,16.00424 -10.574536,15.99063 -0.386077,-0.005 -2.631274,-2.12142 -4.989326,-4.70279 z M 454.19049,222.68643 c -12.1585,-12.8866 -16.59153,-19.30053 -18.30033,-26.47783 -0.46947,-1.97186 -0.27036,-2.74978 0.70367,-2.74921 2.35631,10e-4 13.09396,5.5259 20.10258,10.34279 7.60759,5.22854 5.62749,6.52402 16.12969,-10.55277 2.26938,-3.69006 4.63239,-6.72756 5.25114,-6.75 2.45127,-0.0889 3.26241,15.3856 1.24579,23.76637 -1.31397,5.46065 -7.93173,20.18354 -10.59297,23.56676 -1.82918,2.32543 -1.82918,2.32543 -14.53957,-11.14611 z m -432.254465,3.23639 c -4.707732,-5.36002 -7.151946,-10.31491 -8.084018,-16.38784 -0.678337,-4.41972 1.197643,-23.37641 2.56548,-25.92405 0.481135,-0.89614 2.642461,1.86805 6.450705,8.25 3.149925,5.27872 6.032439,9.58338 6.405587,9.56592 0.373148,-0.0175 2.253451,-1.62411 4.178451,-3.57033 3.611019,-3.65081 23.489665,-14.24159 24.61636,-13.11489 0.956574,0.95657 -2.302526,8.41808 -6.175761,14.13901 -1.890857,2.79288 -7.251161,9.12796 -11.911788,14.07796 -4.660627,4.95 -9.497957,10.9125 -10.749622,13.25 -1.251665,2.3375 -2.50882,4.25 -2.793677,4.25 -0.284856,0 -2.310629,-2.0411 -4.501717,-4.53578 z m 429.746085,-32.8252 c -9.40838,-5.8903 -22.80001,-18.38596 -25.64056,-23.92509 -1.05088,-2.04924 -1.69762,-3.93895 -1.43721,-4.19936 0.40071,-0.40072 11.48176,2.81321 22.30616,6.46963 3.5894,1.21248 3.94566,0.8559 5.47926,-5.4842 1.25178,-5.175 8.48213,-21.5 9.52236,-21.5 0.32429,0 1.07201,1.2375 1.6616,2.75 4.54915,11.67012 6.04868,28.18394 3.47035,38.21766 -1.72174,6.70025 -4.38067,12.1961 -6.101,12.61041 -0.54495,0.13124 -4.71239,-2.09133 -9.26096,-4.93905 z M 30.51404,184.05861 c -5.722385,-9.25901 -6.386587,-19.32804 -2.125228,-32.21759 3.279574,-9.91988 6.021927,-16.78204 6.490264,-16.24051 1.194928,1.38169 6.573154,19.70649 6.573154,22.39619 0,1.83913 0.342525,3.55556 0.761168,3.81429 0.418642,0.25874 5.706142,-0.82103 11.75,-2.39949 6.043857,-1.57846 12.256656,-2.88859 13.80622,-2.91141 2.463493,-0.0363 2.731795,0.24113 2.135979,2.20851 -2.39639,7.91284 -8.725728,13.60353 -22.087165,19.85851 -5.591561,2.61762 -10.461476,5.23663 -10.822032,5.82002 -0.360557,0.58339 -1.495562,1.51027 -2.522236,2.05973 -1.549999,0.82954 -2.221828,0.42437 -3.960124,-2.38825 z M 430.67231,158.4456 c -7.30395,-2.65762 -15.17895,-5.95175 -17.5,-7.3203 -5.27467,-3.11009 -10.1541,-8.1554 -9.27029,-9.58544 1.2283,-1.98743 17.90841,-0.51334 27.07757,2.39296 1.88435,0.59727 2.117,-0.0254 3.29838,-8.82811 1.69388,-12.62147 6.16057,-21.82633 8.93277,-18.40844 4.43912,5.47308 6.72302,28.46692 3.99299,40.20069 -0.75991,3.2661 -1.80236,6.03788 -2.31657,6.15951 -0.5142,0.12164 -6.91089,-1.95326 -14.21485,-4.61087 z M 48.781357,147.7086 c -2.496955,-5.96855 -1.985901,-17.29902 1.183989,-26.25 1.460824,-4.125 2.973931,-8.85 3.362459,-10.5 0.388529,-1.65 1.065846,-3 1.505149,-3 1.095018,0 5.404954,12.9752 6.145095,18.5 1.394302,10.40779 1.139219,10.00507 6.303636,9.95202 2.5688,-0.0264 9.508045,-0.61521 15.420545,-1.30848 5.912502,-0.69327 10.750002,-0.86665 10.750002,-0.38529 0,2.10724 -5.384344,7.63308 -9.756134,10.0125 -3.637766,1.97992 -7.360185,2.87276 -15.737598,3.77473 -6.035049,0.64977 -12.022139,1.58035 -13.304643,2.06796 -3.661301,1.39203 -4.202647,1.12806 -5.8725,-2.86344 z M 419.95224,131.28066 c -1.1,-0.61441 -4.38217,-3.12732 -7.2937,-5.58425 -4.52925,-3.82204 -6.17148,-6.29179 -11.37208,-17.10247 -3.3431,-6.94944 -6.92343,-13.829813 -7.95629,-15.289713 -1.03286,-1.4599 -1.87793,-2.91609 -1.87793,-3.23596 0,-1.40532 12.04757,4.04365 17.57412,7.94857 5.88651,4.159243 9.7062,8.284923 12.43094,13.426763 1.37679,2.59812 3.99173,14.88463 3.99376,18.765 0.001,2.50144 -2.17881,2.92649 -5.49882,1.07206 z M 70.750764,123.79418 c -1.744046,-4.54491 5.767748,-22.10371 12.177814,-28.465613 7.301274,-7.24642 20.523662,-14.530686 20.523662,-11.30658 0,2.04241 -6.919678,20.164713 -9.295218,24.343753 -3.99912,7.03521 -8.374494,10.65821 -18.000069,14.90486 -4.270089,1.88389 -4.862185,1.94124 -5.406189,0.52358 z M 357.60931,99.147857 c -0.5983,-0.72091 -4.0284,-3.30484 -7.62244,-5.74206 -3.59405,-2.43722 -6.53463,-4.96465 -6.53463,-5.61651 0,-0.65186 5.02588,-7.855433 11.16863,-16.007943 6.14275,-8.152511 11.27646,-14.968957 11.40824,-15.147657 0.48476,-0.657316 8.42313,5.125482 8.42313,6.135923 0,0.574882 -3.3336,5.417314 -7.408,10.760959 -10.5746,13.868758 -10.3658,13.250848 -5.61369,16.612928 4.57553,3.23715 4.96255,5.08259 1.70724,8.14079 -2.66321,2.501953 -3.99597,2.710143 -5.52848,0.86357 z M 133.45224,73.821685 c -5.225,-8.573873 -9.61858,-16.100561 -9.76352,-16.725974 -0.14494,-0.625413 1.20506,-1.981942 3,-3.014508 1.79494,-1.032567 4.75473,-2.728505 6.57732,-3.768751 1.82259,-1.040246 4.30195,-2.538814 5.50968,-3.33015 2.62681,-1.721154 3.85925,-1.074299 6.03125,3.165536 1.63379,3.189241 1.63379,3.189241 -2.36047,5.434141 -3.9771,2.235256 -4.54214,3.285304 -3.38727,6.294831 0.81633,2.127331 3.00819,1.991995 6.35691,-0.39251 2.61723,-1.863627 2.85691,-1.87764 4.27587,-0.25 0.82678,0.948363 2.00819,2.701864 2.62537,3.896669 0.99535,1.926928 0.72741,2.416327 -2.3715,4.33156 -1.9215,1.187553 -3.49364,2.635216 -3.49364,3.217029 0,0.581813 1.35,3.251871 3,5.933463 1.65,2.681592 3,5.274416 3,5.761826 0,1.06398 -6.61621,5.09378 -8.30716,5.05972 -0.65606,-0.0132 -5.46784,-7.039009 -10.69284,-15.612882 z m 189.5,3.293522 c -3.77361,-1.422185 -4.65281,-2.589924 -4.01084,-5.327147 0.58965,-2.514163 -0.27904,-5.329463 -1.64445,-5.329463 -0.51773,0 -2.83208,-0.918607 -5.14302,-2.041349 -4.20169,-2.04135 -4.20169,-2.04135 -7.05125,1.127202 -2.80017,3.113636 -2.92149,3.146002 -7,1.867469 -2.28274,-0.715596 -4.52647,-1.621363 -4.98605,-2.012816 -0.96624,-0.822993 8.75605,-12.659877 22.33561,-27.193594 4.5,-4.816188 4.5,-4.816188 9.24883,-3.187945 2.61186,0.895534 4.98013,2.002477 5.26282,2.459876 0.28268,0.457398 0.21213,9.865276 -0.15678,20.906395 -0.73547,22.011534 -0.42226,21.15567 -6.85487,18.731372 z m -2.5,-24.65661 c 0,-2.75 -0.36537,-5 -0.81194,-5 -1.16248,0 -5.18806,5.658743 -5.18806,7.292841 0,1.967438 1.0019,2.707159 3.66667,2.707159 2.13333,0 2.33333,-0.428571 2.33333,-5 z M 178.94652,70.449344 c -0.37072,-0.599835 -3.30859,-8.966854 -6.52861,-18.593378 -4.02119,-12.021712 -5.48053,-17.62927 -4.66012,-17.906728 0.65695,-0.222178 5.01945,-1.606539 9.69445,-3.076357 4.675,-1.469818 8.83834,-2.866399 9.25187,-3.103514 0.70914,-0.406615 1.62173,1.427777 3.14418,6.32012 0.57612,1.851341 0.0723,2.305328 -3.84029,3.460584 -2.47687,0.731333 -4.73857,1.942532 -5.02599,2.691553 -0.82713,2.155448 1.37049,5.378744 3.28113,4.812518 7.47292,-2.214626 7.61842,-2.154434 8.69761,3.59813 0.6785,3.616686 0.62831,3.690031 -2.98905,4.368653 -2.02353,0.379615 -3.87819,1.208933 -4.12148,1.842928 -0.24328,0.633995 0.46764,3.797622 1.57984,7.030282 1.1122,3.232659 2.02218,5.977521 2.02218,6.099692 0,0.287099 -4.87075,2.154109 -7.66584,2.938399 -1.19122,0.334249 -2.46916,0.116952 -2.83988,-0.482882 z m 39.08899,-10.161066 c -0.22831,-0.731325 -0.72114,-5.154681 -1.09517,-9.829681 -0.37404,-4.675 -1.02314,-12.775 -1.44245,-17.999999 -0.41931,-5.225 -0.71362,-9.570922 -0.65402,-9.657605 0.39788,-0.578655 20.04835,-2.387537 21.18757,-1.950377 0.8872,0.340451 1.4208,1.990714 1.4208,4.394109 0,3.848896 0,3.848896 -5.25,4.781384 -4.68467,0.832077 -5.25,1.201694 -5.25,3.432489 0,2.362458 0.26133,2.481706 4.75,2.167489 3.6461,-0.255236 4.75,0.0062 4.75,1.125 0,0.80163 0.28125,2.86376 0.625,4.58251 0.61672,3.083599 0.57197,3.125 -3.37756,3.125 -4.57332,0 -6.42411,1.608393 -5.57725,4.846793 0.53246,2.036152 1.10427,2.215571 6.20815,1.947964 5.62166,-0.294757 5.62166,-0.294757 5.92577,3.885856 0.3041,4.180613 0.3041,4.180613 -4,4.715798 -13.15889,1.636213 -17.81076,1.746829 -18.22084,0.43327 z m 42.06966,0.444697 c -2.69043,-0.40252 -2.80923,-0.627698 -2.15922,-4.092551 0.89903,-4.792233 1.19547,-5.181827 3.94286,-5.181827 1.2752,0 2.77998,-0.5625 3.34395,-1.25 0.56398,-0.6875 1.81009,-7.2125 2.76915,-14.499999 1.74374,-13.25 1.74374,-13.25 6.62842,-13.25 3.224,0 5.06421,0.467847 5.41274,1.37611 0.9501,2.475905 -3.32961,30.576271 -5.05869,33.215188 -2.59287,3.957213 -6.53112,4.932057 -14.87921,3.683079 z"
       id="path177" />
  </g>
</svg>
